{"title":"Last Day of Summer.2009.DvDRIP.XviD.Feel-Free","uid":6057315,"size":897861962,"categoryP":"video","categoryS":"movies","magnet":"?xt=urn:btih:419b1e37a85ee4345e0c7cd180c526a98a1d2f25&amp;dn=Last+Day+of+Summer.2009.DvDRIP.XviD.Feel-Free&amp;tr=udp%3A%2F%2Ftracker.openbittorrent.com%3A80&amp;tr=udp%3A%2F%2Fopen.demonii.com%3A1337&amp;tr=udp%3A%2F%2Ftracker.coppersurfer.tk%3A6969&amp;tr=udp%3A%2F%2Fexodus.desync.com%3A6969","seeders":1,"leechers":0,"uploader":"neon","files":7,"time":1292961249,"description":"\nGenre:Comedy | Drama\nLanguage:English\n &lt;a href=&quot; http://www.imdb.com/title/tt1242544/&quot; rel=&quot;nofollow&quot; target=&quot;_NEW&quot;&gt; http://www.imdb.com/title/tt1242544/&lt;/a&gt;\nSource:DVD\n\n\nFormat : MPEG-4\nFormat profile : Base Media / Version 2\nCodec ID : mp42\nFile size : 855 MiB\nDuration : 1h 25mn\nOverall bit rate : 1 403 Kbps\n\n\nVideo\nID : 1\nFormat : MPEG-4 Visual\nFormat profile : Advanced Simple@L5\nFormat settings, BVOP : No\nFormat settings, QPel : Yes\nFormat settings, GMC : No warppoints\nFormat settings, Matrix : Default (H.263)\nCodec ID : 20\nDuration : 1h 25mn\nBit rate mode : Constant\nBit rate : 1 179 Kbps\nNominal bit rate : 64.0 Kbps\nWidth : 720 pixels\nHeight : 304 pixels\nDisplay aspect ratio : 2.35:1\nFrame rate mode : Constant\nFrame rate : 23.976 fps\nColor space : YUV\nChroma subsampling : 4:2:0\nBit depth : 8 bits\nScan type : Progressive\nBits/(Pixel*Frame) : 0.225\nStream size : 719 MiB (84%)\nWriting library : XviD 1.2.1 (UTC 2008-12-04)\n\nAudio\nID : 2\nFormat : AAC\nFormat/Info : Advanced Audio Codec\nFormat version : Version 4\nFormat profile : LC\nCodec ID : 40\nDuration : 1h 25mn\nBit rate mode : Constant\nBit rate : 224 Kbps\nChannel(s) : 2 channels\nChannel positions : Front: L R\nSampling rate : 48.0 KHz\nStream size : 134 MiB (16%)\nLanguage : English\n\n\nPlot:\nThis unpredictable story follows an agitated fast-food employee, Joe, who's reached his breaking point from being harassed and tormented by his boss\n\n","torrent":{"xt":"urn:btih:419b1e37a85ee4345e0c7cd180c526a98a1d2f25","amp;dn":"Last+Day+of+Summer.2009.DvDRIP.XviD.Feel-Free","amp;tr":["udp%3A%2F%2Ftracker.openbittorrent.com%3A80","udp%3A%2F%2Fopen.demonii.com%3A1337","udp%3A%2F%2Ftracker.coppersurfer.tk%3A6969","udp%3A%2F%2Fexodus.desync.com%3A6969"],"infoHash":"419b1e37a85ee4345e0c7cd180c526a98a1d2f25","infoHashBuffer":{"type":"Buffer","data":[65,155,30,55,168,94,228,52,94,12,124,209,128,197,38,169,138,29,47,37]},"announce":[],"urlList":[]}}